0
SECTION
2
HEADER
9
$INSUNITS
70
4
9
$ACADVER
1
AC1014
9
$HANDSEED
5
FFFF
0
ENDSEC
0
SECTION
2
TABLES
0
TABLE
2
VPORT
5
8
100
AcDbSymbolTable
0
ENDTAB
0
TABLE
2
LTYPE
5
5
100
AcDbSymbolTable
0
LTYPE
5
14
100
AcDbSymbolTableRecord
100
AcDbLinetypeTableRecord
2
BYBLOCK
70
0
0
LTYPE
5
15
100
AcDbSymbolTableRecord
100
AcDbLinetypeTableRecord
2
BYLAYER
70
0
0
LTYPE
5
16
100
AcDbSymbolTableRecord
100
AcDbLinetypeTableRecord
2
DASHED
70
0
3
Dashed __ __ __ __ __ __ __ __ __ __ __ __ __ _
72
65
73
2
40
0.75
49
0.5
74
0
49
-0.25
74
0
0
ENDTAB
0
TABLE
2
LAYER
5
2
100
AcDbSymbolTable
70
2
0
LAYER
5
50
100
AcDbSymbolTableRecord
100
AcDbLayerTableRecord
2
0
70
0
62
7
6
CONTINUOUS
0
ENDTAB
0
TABLE
2
STYLE
5
3
100
AcDbSymbolTable
70
1
0
STYLE
5
11
100
AcDbSymbolTableRecord
100
AcDbTextStyleTableRecord
2
STANDARD
70
0
0
ENDTAB
0
TABLE
2
VIEW
5
6
100
AcDbSymbolTable
70
0
0
ENDTAB
0
TABLE
2
UCS
5
7
100
AcDbSymbolTable
70
0
0
ENDTAB
0
TABLE
2
APPID
5
9
100
AcDbSymbolTable
70
2
0
APPID
5
12
100
AcDbSymbolTableRecord
100
AcDbRegAppTableRecord
2
ACAD
70
0
0
ENDTAB
0
TABLE
2
DIMSTYLE
5
A
100
AcDbSymbolTable
70
1
0
ENDTAB
0
TABLE
2
BLOCK_RECORD
5
1
100
AcDbSymbolTable
70
1
0
BLOCK_RECORD
5
1F
100
AcDbSymbolTableRecord
100
AcDbBlockTableRecord
2
*MODEL_SPACE
0
BLOCK_RECORD
5
1B
100
AcDbSymbolTableRecord
100
AcDbBlockTableRecord
2
*PAPER_SPACE
0
ENDTAB
0
ENDSEC
0
SECTION
2
BLOCKS
0
BLOCK
5
20
100
AcDbEntity
100
AcDbBlockBegin
2
*MODEL_SPACE
0
ENDBLK
5
21
100
AcDbEntity
100
AcDbBlockEnd
0
BLOCK
5
1C
100
AcDbEntity
100
AcDbBlockBegin
2
*PAPER_SPACE
0
ENDBLK
5
1D
100
AcDbEntity
100
AcDbBlockEnd
0
ENDSEC
0
SECTION
2
ENTITIES
0
POINT
5
100
100
AcDbEntity
8
0
100
AcDbPoint
10
0
20
0
30
0
0
POINT
5
101
100
AcDbEntity
8
0
100
AcDbPoint
10
-30
20
0
30
0
0
POINT
5
102
100
AcDbEntity
8
0
100
AcDbPoint
10
-45.911468984184573
20
-15.908336014974422
30
0
0
POINT
5
103
100
AcDbEntity
8
0
100
AcDbPoint
10
-45.911468984184573
20
-59.908336014974424
30
0
0
POINT
5
104
100
AcDbEntity
8
0
100
AcDbPoint
10
-35.824484853091086
20
-70.001545770177842
30
0
0
LINE
5
105
100
AcDbEntity
8
0
100
AcDbLine
10
0
20
0
30
0
11
-29.171688225642999
21
0
31
0
0
LINE
5
106
100
AcDbEntity
8
0
100
AcDbLine
10
-30.58576253808517
20
-0.58564720140581661
30
0
11
-44.446654765289999
21
-14.443810218088586
31
0
0
LINE
5
107
100
AcDbEntity
8
0
100
AcDbLine
10
-45.911468984184573
20
-17.979692214574044
30
0
11
-45.911468984184573
21
-58.252204583728158
31
0
0
LINE
5
108
100
AcDbEntity
8
0
100
AcDbLine
10
-44.740768548868736
20
-61.07975899934565
30
0
11
-37.945150664804203
21
-67.879571096664719
31
0
0
LINE
5
109
100
AcDbEntity
8
0
100
AcDbLine
10
-33.702510179577956
20
-67.880879958464732
30
0
11
-25.663931327779249
21
-59.847259407496303
31
0
0
LINE
5
110
100
AcDbEntity
8
0
100
AcDbLine
10
0
20
0
30
0
11
29.171688225642995
21
-2.7755575615628914e-16
31
0
0
LINE
5
111
100
AcDbEntity
8
0
100
AcDbLine
10
30.58576253808517
20
-0.58564720140581339
30
0
11
44.446654765289999
21
-14.443810218088586
31
0
0
LINE
5
112
100
AcDbEntity
8
0
100
AcDbLine
10
45.911468984184573
20
-17.979692214574044
30
0
11
45.911468984184573
21
-58.252204583728158
31
0
0
LINE
5
113
100
AcDbEntity
8
0
100
AcDbLine
10
44.740768548868736
20
-61.07975899934565
30
0
11
37.945150664804203
21
-67.879571096664719
31
0
0
LINE
5
114
100
AcDbEntity
8
0
100
AcDbLine
10
33.702510179577956
20
-67.880879958464732
30
0
11
25.663931327779252
21
-59.847259407496303
31
0
0
LINE
5
115
100
AcDbEntity
8
0
100
AcDbLine
10
0
20
0
30
0
11
-3.061616997868383e-17
21
-0.5
31
0
0
LWPOLYLINE
5
116
100
AcDbEntity
8
0
100
AcDbPolyline
90
6
70
1
43
0.0
10
-3.061616997868383e-17
20
-0.5
10
-7.8739999999999997
20
-0.5
10
-7.8740000000000006
20
-15.613000000000001
10
6.1232339957367722e-17
20
-15.613000000000001
10
7.8739999999999997
20
-15.613000000000001
10
7.8739999999999997
20
-0.50000000000000144
0
LINE
5
117
100
AcDbEntity
8
0
100
AcDbLine
10
5.8739999999999988
20
-11.065053336181991
30
0
11
5.8739999999999988
21
-15.613000000000001
31
0
0
LINE
5
118
100
AcDbEntity
8
0
100
AcDbLine
10
5.8739999999999988
20
-11.065053336181991
30
0
11
5.8739999999999988
21
-10.6727495927801
31
0
0
LINE
5
119
100
AcDbEntity
8
0
100
AcDbLine
10
5.8739999999999988
20
-10.6727495927801
30
0
11
5.8740000000000006
21
-3.0000000149011621
31
0
0
ARC
5
120
100
AcDbEntity
8
0
100
AcDbCircle
10
-29.171688225643003
20
-1.9999999999999796
30
0
40
1.9999999999999796
210
0
220
-0
230
1
100
AcDbArc
50
89.999999999999901
51
134.99435867339542
0
ARC
5
121
100
AcDbEntity
8
0
100
AcDbCircle
10
29.171688225642995
20
-2.0000000000000138
30
0
40
2.0000000000000124
210
0
220
-0
230
1
100
AcDbArc
50
45.005641326605193
51
90
0
ARC
5
122
100
AcDbEntity
8
0
100
AcDbCircle
10
40.911468984184573
20
-17.979692214574044
30
0
40
5
210
0
220
-0
230
1
100
AcDbArc
50
0
51
45.00564132660493
0
ARC
5
123
100
AcDbEntity
8
0
100
AcDbCircle
10
-40.911468984184566
20
-17.979692214574051
30
0
40
5.0000000000000089
210
0
220
0
230
1
100
AcDbArc
50
134.99435867339508
51
180
0
ARC
5
124
100
AcDbEntity
8
0
100
AcDbCircle
10
-41.91146898418458
20
-58.252204583728151
30
0
40
3.9999999999999947
210
0
220
0
230
1
100
AcDbArc
50
180
51
224.98232415520769
0
ARC
5
125
100
AcDbEntity
8
0
100
AcDbCircle
10
41.91146898418458
20
-58.252204583728151
30
0
40
3.9999999999999964
210
-0
220
0
230
1
100
AcDbArc
50
315.01767584479234
51
360
0
ARC
5
126
100
AcDbEntity
8
0
100
AcDbCircle
10
35.823175991291066
20
-65.758905284951624
30
0
40
2.9999999999999911
210
0
220
0
230
1
100
AcDbArc
50
225.01767584479236
51
315.01767584479296
0
LINE
5
127
100
AcDbEntity
8
0
100
AcDbLine
10
-3.8311268529020175e-16
20
-2.5
30
0
11
-0.16108650579871764
21
-2.5
31
0
0
LINE
5
128
100
AcDbEntity
8
0
100
AcDbLine
10
-0.16108650579871764
20
-2.5
30
0
11
-7.8739999999999997
21
-2.4999999999999996
31
0
0
LINE
5
129
100
AcDbEntity
8
0
100
AcDbLine
10
-3.8311268529020175e-16
20
-2.5
30
0
11
0.24318270527898922
21
-2.5
31
0
0
LINE
5
130
100
AcDbEntity
8
0
100
AcDbLine
10
0.24318270527898922
20
-2.5
30
0
11
5.8739999999999988
21
-2.5
31
0
0
LINE
5
131
100
AcDbEntity
8
0
100
AcDbLine
10
5.8740000000000006
20
-3.0000000149011621
30
0
11
5.8739999999999988
21
-2.5
31
0
0
ARC
5
132
100
AcDbEntity
8
0
100
AcDbCircle
10
-35.823175991291066
20
-65.758905284951624
30
0
40
2.9999999999999911
210
0
220
0
230
1
100
AcDbArc
50
224.98232415520701
51
314.98232415520766
0
LINE
5
133
100
AcDbEntity
8
0
100
AcDbLine
10
-23.543265516066132
20
-58.969234081009432
30
0
11
23.543265516066132
21
-58.969234081009432
31
0
0
ARC
5
134
100
AcDbEntity
8
0
100
AcDbCircle
10
-23.543265516066146
20
-61.969234081009404
30
0
40
2.9999999999999716
210
0
220
-0
230
1
100
AcDbArc
50
89.99999999999973
51
134.98232415520764
0
ARC
5
135
100
AcDbEntity
8
0
100
AcDbCircle
10
23.54326551606615
20
-61.969234081009404
30
0
40
2.999999999999972
210
0
220
-0
230
1
100
AcDbArc
50
45.017675844792379
51
90.000000000000341
0
ENDSEC
0
SECTION
2
OBJECTS
0
DICTIONARY
5
C
100
AcDbDictionary
3
ACAD_GROUP
350
D
3
ACAD_MLINESTYLE
350
17
0
DICTIONARY
5
D
100
AcDbDictionary
0
DICTIONARY
5
1A
330
C
100
AcDbDictionary
0
DICTIONARY
5
17
100
AcDbDictionary
0
ENDSEC
0
EOF
